# xmcd CD database file
#
# Track frame offsets:
#	150
#	16228
#	33117
#	55469
#	71743
#	89307
#	108154
#	124241
#	141993
#	157753
#	172385
#
# Disc length: 2507 seconds
#
# Revision: 0
# Processed by: cddbd v1.5.1PL0 Copyright (c) Steve Scherf et al.
# Submitted via: CDex 1.51
#
DISCID=9309c90b
DTITLE=Bjørn Jens - Lag whisky om til vann
DYEAR=2005
DGENRE=Country
TTITLE0=Lag whisky om til vann
TTITLE1=Venga
TTITLE2=Midt i livet
TTITLE3=Badestrandsballade
TTITLE4=Tusen tomme tanka
TTITLE5=Super duper dame
TTITLE6=Rønkan mine
TTITLE7=Gå på stå på
TTITLE8=Livet for rett forbi me
TTITLE9=Hold Norge i gang
TTITLE10=Siste dansen
EXTD=YEAR: 2005
EXTT0=
EXTT1=
EXTT2=
EXTT3=
EXTT4=
EXTT5=
EXTT6=
EXTT7=
EXTT8=
EXTT9=
EXTT10=
PLAYORDER=
